<svg width="18" height="18" viewBox="0 0 18 18" fill="none" xmlns="http://www.w3.org/2000/svg">
<rect x="2" y="3" width="2" height="2" fill="#02080F"/>
<rect width="2" height="2" transform="matrix(-1 0 0 1 16 3)" fill="#02080F"/>
<rect x="4" y="5" width="2" height="2" fill="#02080F"/>
<rect width="2" height="2" transform="matrix(-1 0 0 1 14 5)" fill="#02080F"/>
<rect x="6" y="7" width="2" height="2" fill="#02080F"/>
<rect width="2" height="2" transform="matrix(-1 0 0 1 12 7)" fill="#02080F"/>
<rect x="8" y="9" width="2" height="2" fill="#02080F"/>
<rect width="2" height="2" transform="matrix(-1 0 0 1 10 9)" fill="#02080F"/>
<rect x="10" y="11" width="2" height="2" fill="#02080F"/>
<rect width="2" height="2" transform="matrix(-1 0 0 1 8 11)" fill="#02080F"/>
<rect x="12" y="13" width="2" height="2" fill="#02080F"/>
<rect width="2" height="2" transform="matrix(-1 0 0 1 6 13)" fill="#02080F"/>
<rect x="14" y="15" width="2" height="2" fill="#02080F"/>
<rect width="2" height="2" transform="matrix(-1 0 0 1 4 15)" fill="#02080F"/>
</svg>
